<?xml version="1.0" encoding="utf-8"?>
<!-- Generator: Adobe Illustrator 17.0.0, SVG Export Plug-In . SVG Version: 6.00 Build 0)  -->
<!DOCTYPE svg PUBLIC "-//W3C//DTD SVG 1.1//EN" "http://www.w3.org/Graphics/SVG/1.1/DTD/svg11.dtd">
<svg version="1.1" id="图层_1" xmlns="http://www.w3.org/2000/svg" xmlns:xlink="http://www.w3.org/1999/xlink" x="0px" y="0px"
	 width="16px" height="16px" viewBox="0 0 16 16" enable-background="new 0 0 16 16" xml:space="preserve">
<g>
	<path fill="#77787B" d="M8.403,3.396C6.602,3.377,5.72,4.507,5.487,5.572c-0.212,0.961,0.149,1.83,0.191,1.926l1.837-0.789
		C7.474,6.606,7.379,6.28,7.44,6.001c0.093-0.426,0.355-0.599,0.94-0.605c0.224,0.002,0.532,0.05,0.728,0.26
		c0.149,0.16,0.222,0.406,0.204,0.691C9.287,6.78,9.099,6.95,8.511,7.422l-0.223,0.18C7.232,8.468,7.222,9.417,7.23,9.599
		l0.999-0.047l0.998,0.034c0.001-0.008,0.032-0.193,0.33-0.437l0.206-0.167c0.653-0.523,1.465-1.175,1.547-2.513
		c0.051-0.838-0.21-1.61-0.736-2.176C10.044,3.725,9.273,3.405,8.403,3.396z"/>
	<path fill="#77787B" d="M8,0C3.582,0,0,3.582,0,8s3.582,8,8,8s8-3.582,8-8S12.418,0,8,0z M8,14c-3.308,0-6-2.692-6-6s2.692-6,6-6
		s6,2.692,6,6S11.308,14,8,14z"/>
	<circle fill="#77787B" cx="7.983" cy="11.734" r="1.354"/>
</g>
</svg>
