<?xml version="1.0" encoding="utf-8"?>
<!-- Generator: Adobe Illustrator 16.0.0, SVG Export Plug-In . SVG Version: 6.00 Build 0)  -->
<!DOCTYPE svg PUBLIC "-//W3C//DTD SVG 1.1//EN" "http://www.w3.org/Graphics/SVG/1.1/DTD/svg11.dtd">
<svg version="1.1" id="图层_1" xmlns="http://www.w3.org/2000/svg" xmlns:xlink="http://www.w3.org/1999/xlink" x="0px" y="0px"
	 width="48px" height="48px" viewBox="0 0 48 48" enable-background="new 0 0 48 48" xml:space="preserve">
<g id="英文" display="none">
</g>
<g id="中文">
</g>
<g id="图层_5">
	<g>
		<path fill="#666666" d="M33.928,34H13.469c-0.276,0-0.5,0.225-0.5,0.5s0.224,0.5,0.5,0.5h20.459c0.276,0,0.5-0.225,0.5-0.5
			S34.204,34,33.928,34z M31.583,25c-0.828,0-1.5,0.672-1.5,1.5s0.672,1.5,1.5,1.5s1.5-0.672,1.5-1.5
			C33.083,25.673,32.411,25,31.583,25z M35.415,16.078C33.788,11.379,29.335,8,24.083,8s-9.704,3.379-11.331,8.078
			C6.752,16.741,2.083,21.823,2.083,28c0,6.627,5.373,12,12,12h20c6.627,0,12-5.373,12-12
			C46.083,21.823,41.415,16.741,35.415,16.078z M34.083,38h-20c-5.514,0-10-4.486-10-10c0-5.104,3.821-9.374,8.889-9.934
			c0.767-0.085,1.417-0.604,1.67-1.333C16.037,12.706,19.831,10,24.083,10s8.047,2.705,9.44,6.732
			c0.254,0.73,0.903,1.249,1.67,1.333c5.068,0.56,8.89,4.831,8.89,9.934C44.083,33.514,39.598,38,34.083,38z M31.583,22h-15
			c-2.485,0-4.5,2.015-4.5,4.5c0,2.484,2.015,4.5,4.5,4.5h15c2.485,0,4.5-2.016,4.5-4.5C36.083,24.015,34.068,22,31.583,22z
			 M31.583,30h-15c-1.93,0-3.5-1.57-3.5-3.5s1.57-3.5,3.5-3.5h15c1.931,0,3.5,1.57,3.5,3.5S33.514,30,31.583,30z"/>
	</g>
</g>
</svg>
